<?xml version="1.0" encoding="UTF-8"?>
<svg version="1.1" xmlns="http://www.w3.org/2000/svg" width="410" height="375">
<path d="M0 0 C0.99 0.33 1.98 0.66 3 1 C3.43951679 17.2458429 2.29145389 32.91734705 0 49 C-0.17160645 50.21848633 -0.34321289 51.43697266 -0.52001953 52.69238281 C-5.70760677 88.62071269 -15.86287955 123.35798327 -39 152 C-39.64839844 152.85078125 -40.29679688 153.7015625 -40.96484375 154.578125 C-50.97171999 167.40843849 -63.00478652 179.21708648 -76 189 C-76.54269531 189.41378906 -77.08539063 189.82757813 -77.64453125 190.25390625 C-95.12704586 203.54992069 -113.66885697 215.39739677 -133.625 224.625 C-134.37128662 224.98037842 -135.11757324 225.33575684 -135.88647461 225.7019043 C-140.36585927 227.70408814 -143.1623212 228.56460244 -148 227 C-151.67226904 225.4873494 -155.24245426 223.80130156 -158.8125 222.0625 C-160.33967651 221.32422974 -160.33967651 221.32422974 -161.89770508 220.57104492 C-180.17020273 211.61624448 -197.11349877 200.70920098 -213 188 C-214.02738281 187.18015625 -215.05476563 186.3603125 -216.11328125 185.515625 C-236.08811362 169.25268076 -252.36465483 150.43018639 -265 128 C-266.16917969 128.17917969 -267.33835937 128.35835937 -268.54296875 128.54296875 C-270.09101448 128.75875694 -271.63919937 128.9735484 -273.1875 129.1875 C-273.95642578 129.30802734 -274.72535156 129.42855469 -275.51757812 129.55273438 C-279.28982654 130.0546215 -281.38946802 130.27632889 -284.92578125 128.67578125 C-288.95140874 125.42343814 -288.95140874 125.42343814 -289.4375 121.1875 C-289.31238461 118.05392824 -288.96264274 116.9363543 -287.3125 114.125 C-283.0425265 111.38577172 -279.32561535 111.12344089 -274.34765625 110.51171875 C-265.68414601 109.18742489 -259.05421893 104.92860991 -252 100 C-233.8489156 88.08518203 -233.8489156 88.08518203 -223.48046875 87.97265625 C-219.41562627 87.91646027 -216.95146521 87.87464967 -213.87109375 85.04296875 C-212.54076302 83.43147222 -211.2268156 81.80630926 -209.9296875 80.16796875 C-206.54997399 76.37092219 -202.87334335 75.38053876 -197.96484375 74.73046875 C-191.53335472 74.39588262 -186.99714243 76.62941206 -181.8125 80.1875 C-176.90901915 85.09098085 -174.78986618 89.52388718 -174.5 96.5 C-174.76614226 102.70712432 -176.3766433 107.2087982 -180.6484375 111.75390625 C-186.21826106 116.80079878 -190.92010816 118.49858196 -198.44140625 118.30859375 C-202.53083753 117.81536463 -205.72221524 116.49427919 -209 114 C-209.94637624 112.77233971 -210.86298659 111.52121398 -211.75 110.25 C-213.68771583 107.80152756 -214.59475761 107.08894128 -217.6875 106.41015625 C-224.26903817 106.20028577 -231.54428359 107.00829135 -237 111 C-238.10379837 113.32490701 -238.10379837 113.32490701 -238 116 C-231.71101839 130.16723656 -217.95339637 145.3137263 -206.234375 155.125 C-204.61149593 156.48685656 -203.02161927 157.88834569 -201.453125 159.3125 C-187.69399877 171.54283443 -171.89012035 181.49684043 -155.875 190.5 C-155.06474365 190.96277344 -154.2544873 191.42554688 -153.41967773 191.90234375 C-147.54440484 195.10654905 -147.54440484 195.10654905 -141 195 C-137.32134831 193.39931232 -133.86035182 191.48164112 -130.375 189.5 C-129.39096191 188.95045654 -128.40692383 188.40091309 -127.39306641 187.8347168 C-111.08244431 178.63658223 -94.41342147 167.70058404 -81.30859375 154.234375 C-79 152 -79 152 -77 152 C-76.67 151.01 -76.34 150.02 -76 149 C-74.37446717 147.29319053 -72.70154013 145.63104775 -71 144 C-56.57437595 129.31165763 -46.42635615 111.54196483 -40 92 C-39.67515625 91.10667969 -39.3503125 90.21335937 -39.015625 89.29296875 C-34.12735321 75.54940461 -30.93389452 60.55300804 -29.6484375 46.02734375 C-28.89395514 37.65891742 -27.73237592 31.46572892 -22 25 C-20.95392578 23.80697266 -20.95392578 23.80697266 -19.88671875 22.58984375 C-18.37340338 20.89879877 -16.84585228 19.22039085 -15.3046875 17.5546875 C-13.00681816 15.00755775 -10.87009696 12.3836233 -8.75 9.6875 C-6.01125793 6.20929757 -3.22805481 3.02630138 0 0 Z " fill="#E9EBF0" transform="translate(359,146)"/>
<path d="M0 0 C4.09401964 1.19041494 6.91943945 3.85882616 10.1640625 6.55078125 C19.10664624 13.6537866 28.45349803 19.40602814 38.5390625 24.73828125 C39.34794922 25.16737793 40.15683594 25.59647461 40.99023438 26.03857422 C66.18991474 39.19121371 94.12425248 47.48364714 122.29296875 51.0390625 C123.13432373 51.14618561 123.97567871 51.25330872 124.8425293 51.36367798 C129.03860493 51.89119753 133.23507112 52.38418544 137.44091797 52.82714844 C138.98278783 53.00681478 140.52461916 53.18681219 142.06640625 53.3671875 C143.13333458 53.46390495 143.13333458 53.46390495 144.22181702 53.56257629 C147.7056625 53.98968408 149.21464557 54.33694411 151.46044922 57.11523438 C152.77507829 60.31224089 153.29101411 63.2472337 153.7265625 66.67578125 C153.96439453 68.45275391 153.96439453 68.45275391 154.20703125 70.265625 C155.04907667 79.07242942 155.04907667 79.07242942 152.9921875 81.7578125 C152.26515625 82.34949219 151.538125 82.94117187 150.7890625 83.55078125 C149.974375 84.21980469 149.1596875 84.88882813 148.3203125 85.578125 C147.4025 86.29097656 146.4846875 87.00382812 145.5390625 87.73828125 C144.00765625 88.94677734 144.00765625 88.94677734 142.4453125 90.1796875 C133.63817152 96.97034199 133.63817152 96.97034199 128.5390625 98.73828125 C126.697323 93.09028013 125.99131011 87.65320397 125.5390625 81.73828125 C124.65089844 81.65191406 123.76273437 81.56554687 122.84765625 81.4765625 C96.28971374 78.55545682 68.89547327 71.80461415 44.5390625 60.73828125 C43.69988281 60.36364746 42.86070312 59.98901367 41.99609375 59.60302734 C30.29755913 54.34317365 19.17305764 48.69128001 8.56542969 41.44677734 C4.5051851 38.71123811 4.5051851 38.71123811 -0.08203125 37.15625 C-3.48164389 37.98801073 -6.06711775 39.76771459 -8.8984375 41.73828125 C-10.15724365 42.57534369 -11.41770315 43.40992434 -12.6796875 44.2421875 C-13.31519531 44.66387207 -13.95070312 45.08555664 -14.60546875 45.52001953 C-45.45563346 65.7755882 -83.3083874 76.70174695 -119.6484375 81.1953125 C-123.24044397 81.31767298 -123.24044397 81.31767298 -124.4609375 82.73828125 C-125.2975186 87.41472038 -125.56570201 91.87670027 -125.49511719 96.61987305 C-125.48723175 97.26795929 -125.47934631 97.91604553 -125.47122192 98.58377075 C-125.45415085 99.97729301 -125.43496557 101.37079072 -125.41384125 102.76425743 C-125.37148529 105.73085353 -125.34825701 108.69750731 -125.32381058 111.66429615 C-125.2781971 117.17498989 -125.22477795 122.68533268 -125.13867188 128.19555664 C-125.07929686 132.04210154 -125.04432017 135.88819912 -125.02548981 139.73514748 C-125.01375405 141.19726397 -124.99295059 142.65933724 -124.96285248 144.12119102 C-124.92185948 146.16208512 -124.9147615 148.20357493 -124.90917969 150.24487305 C-124.89506042 151.40512497 -124.88094116 152.56537689 -124.86639404 153.76078796 C-125.4609375 156.73828125 -125.4609375 156.73828125 -127.78448486 159.01130676 C-136.01879401 164.32447451 -142.54047178 167.08636777 -152.4609375 166.73828125 C-153.93722268 161.36721173 -154.834436 156.2950922 -155.07421875 150.71875 C-155.13020988 149.56985542 -155.13020988 149.56985542 -155.18733215 148.39775085 C-155.60188039 138.98171748 -155.64698702 129.55971908 -155.64624023 120.13598633 C-155.64842265 117.07163497 -155.66665424 114.00764743 -155.68554688 110.94335938 C-155.8167472 64.2719958 -155.8167472 64.2719958 -149.4609375 54.73828125 C-146.79924355 54.18856495 -144.30622096 53.82638344 -141.61328125 53.5625 C-139.97139435 53.37625798 -138.32955032 53.18963777 -136.68774414 53.00268555 C-135.8244046 52.90917816 -134.96106506 52.81567078 -134.07156372 52.71932983 C-89.60056908 47.8357604 -39.68538178 34.59483947 -5.80859375 3.40625 C-3.7537451 1.64782066 -2.61978879 0.78593664 0 0 Z " fill="#ECEEF2" transform="translate(206.4609375,-0.73828125)"/>
<path d="M0 0 C2 3 2 3 1.9375 5.375 C0.01860696 10.7479005 -5.56203242 14.51346778 -9.6875 18.3125 C-10.64011719 19.19550781 -11.59273437 20.07851562 -12.57421875 20.98828125 C-15 23 -15 23 -17 23 C-17.33 23.99 -17.66 24.98 -18 26 C-19.49609375 27.47265625 -19.49609375 27.47265625 -21.4375 29.0625 C-25.87358313 32.80068217 -29.87722825 36.88176495 -33.8984375 41.05859375 C-36 43 -36 43 -38 43 C-38.20238281 43.53109375 -38.40476562 44.0621875 -38.61328125 44.609375 C-40.60463192 48.04235136 -43.34499261 50.50844296 -46.1875 53.25 C-51.02244793 58.00217572 -55.61608749 62.8262733 -60 68 C-60.99594863 69.1457908 -61.99350793 70.29018247 -62.9921875 71.43359375 C-73.37559098 83.32927644 -83.29674181 95.54621193 -93 108 C-93.42958008 108.54946289 -93.85916016 109.09892578 -94.30175781 109.66503906 C-100.29225284 117.33416395 -106.04733212 125.14345885 -111.65527344 133.09619141 C-113.08011155 135.11341864 -114.51226446 137.12531679 -115.9453125 139.13671875 C-123.01649008 149.0802073 -129.83986261 159.16471737 -136.55029297 169.35400391 C-138.17648623 171.8212478 -139.80692383 174.28565128 -141.4375 176.75 C-141.94603516 177.52529053 -142.45457031 178.30058105 -142.97851562 179.09936523 C-143.45869141 179.82454346 -143.93886719 180.54972168 -144.43359375 181.296875 C-144.85697021 181.93979492 -145.28034668 182.58271484 -145.71655273 183.24511719 C-147.03135437 185.04287145 -148.29615034 186.56241162 -150 188 C-152.85083114 187.87021334 -154.44495324 187.45105673 -156.66796875 185.64453125 C-160.71967254 180.75957218 -164.44407754 175.6731602 -168.09863281 170.48754883 C-172.54800192 164.17870447 -177.24683226 158.0815245 -182 152 C-182.42893555 151.44876465 -182.85787109 150.8975293 -183.29980469 150.32958984 C-189.81005967 141.96374328 -196.45082345 133.70934507 -203.15234375 125.49609375 C-203.63815918 124.8913623 -204.12397461 124.28663086 -204.62451172 123.66357422 C-205.8383985 122.19544774 -207.13469777 120.7963126 -208.44140625 119.41015625 C-210 117 -210 117 -210.0703125 113.97265625 C-208.71344799 110.20413839 -207.04582394 108.85233731 -203.875 106.4375 C-202.87984375 105.67308594 -201.8846875 104.90867187 -200.859375 104.12109375 C-199.91578125 103.42113281 -198.9721875 102.72117187 -198 102 C-197.30390625 101.45472656 -196.6078125 100.90945312 -195.890625 100.34765625 C-192.71819359 97.92622077 -190.06927397 96 -186 96 C-178.20822353 100.06248872 -172.47940726 107.29641144 -166.83203125 113.8828125 C-163.92290025 117.24475067 -160.91382641 120.51616623 -157.91796875 123.80078125 C-156 126 -156 126 -154 129 C-150.80916164 128.73833672 -149.96876509 127.9645893 -147.80859375 125.515625 C-147.00918661 124.43370663 -146.21940427 123.34463457 -145.4375 122.25 C-144.55086834 121.05398979 -143.66145797 119.86003538 -142.76953125 118.66796875 C-142.31271973 118.05614746 -141.8559082 117.44432617 -141.38525391 116.81396484 C-137.9197806 112.27599046 -134.14254921 107.98697924 -130.42089844 103.65917969 C-128.9926283 101.99139209 -127.57709731 100.31351897 -126.1640625 98.6328125 C-112.86739697 82.87263708 -98.75475504 67.09719768 -83.01171875 53.73046875 C-80.51716397 51.58466726 -78.10781018 49.35414323 -75.6875 47.125 C-70.28470554 42.20526144 -64.71959178 37.54594093 -59 33 C-57.54013672 31.83017578 -57.54013672 31.83017578 -56.05078125 30.63671875 C-43.61709081 20.85513292 -30.41293449 12.25559483 -16.8125 4.1875 C-15.93980469 3.65334473 -15.06710937 3.11918945 -14.16796875 2.56884766 C-9.13746131 -0.34841837 -5.84846569 -1.96465968 0 0 Z " fill="#EAECF0" transform="translate(406,73)"/>
<path d="M0 0 C4.37647994 3.20468409 8.20106968 7.23602155 9.92578125 12.41015625 C10.6148053 19.60553601 10.87541 25.8048773 6.4140625 31.76171875 C1.3430828 37.37839442 -3.30328837 40.0452275 -10.94921875 40.78515625 C-17.01345343 40.61122983 -21.47042466 37.80475981 -25.94921875 33.91015625 C-27.79391666 31.73992341 -28.87929234 29.95072052 -30.07421875 27.41015625 C-47.82926805 28.59618646 -63.31125487 31.11823295 -76.26171875 44.47265625 C-81.44641068 50.43822998 -85.59278986 57.10827634 -89.90527344 63.71557617 C-94.17008172 70.20023917 -98.55848397 75.92771564 -104.07421875 81.41015625 C-104.66332031 82.04695313 -105.25242187 82.68375 -105.859375 83.33984375 C-117.86674547 96.08570853 -136.18031989 102.26137669 -153.47265625 102.79492188 C-155.14704745 102.83057532 -156.82154014 102.86170437 -158.49609375 102.88867188 C-159.70652344 102.92831055 -159.70652344 102.92831055 -160.94140625 102.96875 C-161.66440918 102.98220459 -162.38741211 102.99565918 -163.13232422 103.00952148 C-165.62444784 103.52367472 -166.44187493 104.49772814 -168.07421875 106.41015625 C-173.62251095 112.25046383 -177.86618561 115.13421965 -185.88671875 115.66015625 C-192.27712334 115.56513165 -197.53918526 112.82262127 -202.07421875 108.41015625 C-206.81046373 102.77786493 -207.00578165 96.42091812 -206.64453125 89.30859375 C-205.78810588 83.45439841 -203.64848523 80.091472 -199.07421875 76.41015625 C-193.50344728 72.71989929 -187.69055311 71.2779493 -181.07421875 72.41015625 C-175.85996528 73.96375132 -173.09414076 76.23652771 -170.01171875 80.66015625 C-167.65101278 83.5347574 -166.53367304 84.32224622 -162.828125 85.03125 C-158.86077767 85.101432 -155.00757369 84.88066698 -151.07421875 84.41015625 C-149.81480469 84.260625 -148.55539063 84.11109375 -147.2578125 83.95703125 C-128.93873208 80.97707656 -116.98860477 71.9091237 -106.33398438 57.20849609 C-104.27757445 54.27293108 -102.35896111 51.2549474 -100.44921875 48.22265625 C-88.16733568 28.75163876 -73.28707919 16.63104841 -50.88671875 11.0546875 C-46.73559285 10.35290904 -42.77046011 10.23053855 -38.57421875 10.16015625 C-34.76614802 10.08380509 -31.87709215 9.99095829 -28.6875 7.68359375 C-26.99675237 5.66643281 -25.54667123 3.58815887 -24.07421875 1.41015625 C-16.85660471 -3.79323992 -7.78865921 -4.3547814 0 0 Z " fill="#E4E7EC" transform="translate(206.07421875,95.58984375)"/>
<path d="M0 0 C5.31732498 4.53943976 9.069344 9.98518039 10 17 C9.81727659 24.3431972 7.08646514 29.79328745 2 35 C-3.12634725 39.26166217 -7.83449848 40.35743296 -14.3671875 40.28125 C-19.95458913 39.68437624 -23.82629652 37.28821114 -27.5625 33.1875 C-29.86655664 30.66151611 -29.86655664 30.66151611 -33.3125 30.8125 C-43.33208683 34.03914661 -49.48143026 42.60325552 -55.54296875 50.74365234 C-63.48658856 61.34227431 -71.68716896 68.68824121 -84 74 C-84.73605469 74.34160156 -85.47210938 74.68320313 -86.23046875 75.03515625 C-94.76289669 78.00766641 -103.31320582 78.40029215 -112.29711914 78.42553711 C-114.32750961 78.43758909 -116.35499911 78.48706703 -118.38476562 78.53710938 C-120.32319336 78.54774414 -120.32319336 78.54774414 -122.30078125 78.55859375 C-124.05128784 78.57877563 -124.05128784 78.57877563 -125.8371582 78.59936523 C-129.95883191 77.81829932 -131.43181157 76.25067305 -134 73 C-134.7531154 68.78255374 -134.59875979 66.882044 -132.18359375 63.32421875 C-127.45529955 59.8722739 -123.15042916 60.30334047 -117.4375 60.3125 C-115.26681904 60.2680122 -113.09623311 60.218594 -110.92578125 60.1640625 C-109.89404785 60.14118164 -108.86231445 60.11830078 -107.79931641 60.09472656 C-93.87713858 59.62361153 -83.06522141 55.71916993 -73.35253906 45.54052734 C-70.4901158 42.28025825 -68.08032482 38.69400588 -65.62890625 35.12158203 C-57.74620599 23.70730694 -47.67104825 15.35883513 -34 12 C-33.34 12 -32.68 12 -32 12 C-31.835 11.154375 -31.67 10.30875 -31.5 9.4375 C-29.09397679 3.92369681 -24.68229598 0.58186686 -19.5625 -2.4375 C-12.82500009 -3.91646339 -5.99644242 -3.63938868 0 0 Z " fill="#E0E3EA" transform="translate(168,166)"/>
<path d="M0 0 C-3.03888522 2.02592348 -4.34302347 2.3711652 -7.8515625 2.81640625 C-8.78484375 2.94080078 -9.718125 3.06519531 -10.6796875 3.19335938 C-11.65164062 3.31517578 -12.62359375 3.43699219 -13.625 3.5625 C-15.55516349 3.81011966 -17.48488337 4.06123089 -19.4140625 4.31640625 C-20.2695166 4.42412354 -21.1249707 4.53184082 -22.00634766 4.64282227 C-23.99331313 4.8028709 -23.99331313 4.8028709 -25 6 C-25.8365811 10.67643913 -26.10476451 15.13841902 -26.03417969 19.8815918 C-26.02629425 20.52967804 -26.01840881 21.17776428 -26.01028442 21.8454895 C-25.99321335 23.23901176 -25.97402807 24.63250947 -25.95290375 26.02597618 C-25.91054779 28.99257228 -25.88731951 31.95922606 -25.86287308 34.9260149 C-25.8172596 40.43670864 -25.76384045 45.94705143 -25.67773438 51.45727539 C-25.61835936 55.30382029 -25.58338267 59.14991787 -25.56455231 62.99686623 C-25.55281655 64.45898272 -25.53201309 65.92105599 -25.50191498 67.38290977 C-25.46092198 69.42380387 -25.453824 71.46529368 -25.44824219 73.5065918 C-25.43412292 74.66684372 -25.42000366 75.82709564 -25.40545654 77.02250671 C-26 80 -26 80 -28.53448486 82.40583801 C-29.34810486 82.93191147 -30.16172485 83.45798492 -31 84 C-31.66 83.67 -32.32 83.34 -33 83 C-32.17113281 82.53980469 -31.34226562 82.07960938 -30.48828125 81.60546875 C-27.74423954 78.7321943 -27.65103228 78.45449213 -27.73046875 74.73828125 C-27.86064287 72.92795678 -28.01495908 71.11927879 -28.1875 69.3125 C-28.32977204 67.24004256 -28.46474796 65.16707575 -28.59375 63.09375 C-28.6659375 61.96324219 -28.738125 60.83273438 -28.8125 59.66796875 C-29.15920624 52.88552789 -29.18488925 46.10218468 -29.1875 39.3125 C-29.18849701 38.60679871 -29.18949402 37.90109741 -29.19052124 37.17401123 C-29.18870803 25.69241469 -28.54909461 14.38307918 -27 3 C-23.62601911 2.49295891 -20.25067379 1.99563464 -16.875 1.5 C-15.92367187 1.35691406 -14.97234375 1.21382813 -13.9921875 1.06640625 C-9.28805294 0.38038663 -4.7695743 -0.19271007 0 0 Z " fill="#3C4D74" transform="translate(107,76)"/>
<path d="M0 0 C0.66 0.33 1.32 0.66 2 1 C-5.71464406 9.47422096 -13.57997413 17.76645444 -21.68408203 25.86938477 C-23.40035201 27.58788496 -25.10839175 29.31431441 -26.81640625 31.04101562 C-27.9265954 32.15413269 -29.03725485 33.26678095 -30.1484375 34.37890625 C-30.6485434 34.88619766 -31.14864929 35.39348907 -31.66390991 35.91615295 C-34.89384986 39.12544837 -38.16304001 41.59861068 -42 44 C-40.62992448 40.95664583 -39.05423049 38.76498714 -36.76171875 36.34765625 C-36.11267578 35.65978027 -35.46363281 34.9719043 -34.79492188 34.26318359 C-33.75174805 33.17384521 -33.75174805 33.17384521 -32.6875 32.0625 C-31.97271484 31.31049316 -31.25792969 30.55848633 -30.52148438 29.78369141 C-13.20071886 11.62768009 -13.20071886 11.62768009 -4.5859375 4.3671875 C-2.97717593 2.98032408 -1.48334641 1.51930632 0 0 Z " fill="#7985A1" transform="translate(328,122)"/>
<path d="M0 0 C0.99 0.33 1.98 0.66 3 1 C3.43922934 17.23521769 2.17433385 32.91224263 0 49 C-0.33 49 -0.66 49 -1 49 C-1.07761994 44.26518342 -1.00922826 39.67731831 -0.5 34.96875 C0.09019528 28.74054014 0.11226638 22.56392308 0.0625 16.3125 C0.05798828 15.21744141 0.05347656 14.12238281 0.04882812 12.99414062 C0.03719156 10.32936691 0.02084564 7.66471483 0 5 C-0.53109375 5.55429688 -1.0621875 6.10859375 -1.609375 6.6796875 C-2.31578125 7.40414062 -3.0221875 8.12859375 -3.75 8.875 C-4.44609375 9.59429687 -5.1421875 10.31359375 -5.859375 11.0546875 C-7.85122217 12.86479679 -9.5427658 13.94848086 -12 15 C-10.42921185 11.31766057 -8.13566869 8.74453885 -5.4375 5.8125 C-4.63183594 4.93207031 -3.82617188 4.05164063 -2.99609375 3.14453125 C-1 1 -1 1 0 0 Z " fill="#566587" transform="translate(359,146)"/>
<path d="M0 0 C0.66 0.33 1.32 0.66 2 1 C1.25556641 1.4021875 1.25556641 1.4021875 0.49609375 1.8125 C-4.34078635 4.60265475 -7.71529516 7.64736396 -11.26953125 11.93359375 C-13.01993664 14.02380696 -14.84253726 15.99004852 -16.75 17.9375 C-17.57757813 18.78634766 -17.57757813 18.78634766 -18.421875 19.65234375 C-20 21 -20 21 -23 22 C-18.85230856 12.98674744 -9.27765997 3.61570474 0 0 Z " fill="#727E9C" transform="translate(135,114)"/>
<path d="M0 0 C6.55828375 0.52799742 13.09359743 1.21066682 19.625 2 C20.33591797 2.0829834 21.04683594 2.1659668 21.77929688 2.25146484 C26.88255259 2.88255259 26.88255259 2.88255259 28 4 C29.08808374 9.6822151 29.10452045 15.22814851 29 21 C28.67 21 28.34 21 28 21 C27.34 15.72 26.68 10.44 26 5 C23.56625 4.71125 21.1325 4.4225 18.625 4.125 C12.35045618 3.36034192 6.17027908 2.39424575 0 1 C0 0.67 0 0.34 0 0 Z " fill="#35466E" transform="translate(306,76)"/>
<path d="M0 0 C0.99 0.33 1.98 0.66 3 1 C2.34 1 1.68 1 1 1 C0.773125 1.556875 0.54625 2.11375 0.3125 2.6875 C-1.37550036 5.66159588 -3.46676517 7.72008865 -6 10 C-6.66 10 -7.32 10 -8 10 C-6.56854369 4.98990293 -4.17048478 2.89380576 0 0 Z " fill="#808BA7" transform="translate(10,170)"/>
</svg>
